<svg enable-background="new 0 0 24 24" height="512" viewBox="0 0 24 24" width="512" xmlns="http://www.w3.org/2000/svg"><g id="Color"><g><path d="m22.25 8h-20.5c-.965 0-1.75.785-1.75 1.75v2.5c0 .965.785 1.75 1.75 1.75h20.5c.965 0 1.75-.785 1.75-1.75v-2.5c0-.965-.785-1.75-1.75-1.75z" fill="#cfd8dc"/></g><g><path d="m22.25 0h-20.5c-.965 0-1.75.785-1.75 1.75v2.5c0 .965.785 1.75 1.75 1.75h20.5c.965 0 1.75-.785 1.75-1.75v-2.5c0-.965-.785-1.75-1.75-1.75z" fill="#03a9f4"/></g></g><g id="regular"><g><path d="m22.25 14h-20.5c-.965 0-1.75-.785-1.75-1.75v-2.5c0-.965.785-1.75 1.75-1.75h20.5c.965 0 1.75.785 1.75 1.75v2.5c0 .965-.785 1.75-1.75 1.75zm-20.5-4.5c-.138 0-.25.112-.25.25v2.5c0 .138.112.25.25.25h20.5c.138 0 .25-.112.25-.25v-2.5c0-.138-.112-.25-.25-.25z"/></g><g><path d="m22.25 6h-20.5c-.965 0-1.75-.785-1.75-1.75v-2.5c0-.965.785-1.75 1.75-1.75h20.5c.965 0 1.75.785 1.75 1.75v2.5c0 .965-.785 1.75-1.75 1.75zm-20.5-4.5c-.138 0-.25.112-.25.25v2.5c0 .138.112.25.25.25h20.5c.138 0 .25-.112.25-.25v-2.5c0-.138-.112-.25-.25-.25z"/></g><g><path d="m23.25 17.5h-22.5c-.414 0-.75-.336-.75-.75s.336-.75.75-.75h22.5c.414 0 .75.336.75.75s-.336.75-.75.75z"/></g><g><path d="m23.25 20.5h-22.5c-.414 0-.75-.336-.75-.75s.336-.75.75-.75h22.5c.414 0 .75.336.75.75s-.336.75-.75.75z"/></g><g><path d="m23.25 23.5h-22.5c-.414 0-.75-.336-.75-.75s.336-.75.75-.75h22.5c.414 0 .75.336.75.75s-.336.75-.75.75z"/></g></g></svg>